[Header]			# Header keywords are followed by a single value
FileType htr		# single word string
DataType HTRS		# Hierarchical translations followed by rotations and Scale
FileVersion 1		# integer
NumSegments 20		# integer
NumFrames 4		# integer
DataFrameRate 60	# integer
EulerRotationOrder ZYX	# one word string
CalibrationUnits mm	# one word string
RotationUnits Degrees	# one word string
GlobalAxisofGravity Y	# character, X or Y or Z
BoneLengthAxis Y
ScaleFactor 1.000000
[SegmentNames&Hierarchy]
#CHILD	PARENT
LowerTorso	GLOBAL
UpperTorso	LowerTorso
LCollarBone	UpperTorso
RCollarBone	UpperTorso
LUpArm	LCollarBone
RUpArm	RCollarBone
LLowArm	LUpArm
RLowArm	RUpArm
LHand	LLowArm
RHand	RLowArm
LPelvis	LowerTorso
RPelvis	LowerTorso
LThigh	LPelvis
RThigh	RPelvis
LLowLeg	LThigh
RLowLeg	RThigh
LFoot	LLowLeg
RFoot	RLowLeg
Neck	UpperTorso
Head	Neck
[BasePosition]
#SegmentName Tx, Ty, Tz, Rx, Ry, Rz, BoneLength
LowerTorso	0.000000	0.000000	0.000000	0.000000	0.000000	0.000000	247.497849
UpperTorso	0.000000	247.497849	0.000000	-3.483188	-0.016176	-0.898562	303.935425
LCollarBone	0.000000	303.935425	0.000000	-2.778975	2.380151	-103.909637	160.814774
RCollarBone	0.000000	303.935425	0.000000	1.923138	-2.431442	97.423370	173.085861
LUpArm	0.000000	160.814774	0.000000	9.905276	-0.146364	3.830753	266.228302
RUpArm	0.000000	173.085861	0.000000	3.559436	0.163580	4.186032	250.544907
LLowArm	0.000000	266.228302	0.000000	0.604391	2.460426	18.478745	239.401855
RLowArm	0.000000	250.544907	0.000000	-4.677841	-1.676118	-16.763147	247.676224
LHand	0.000000	239.401855	0.000000	-2.922581	-1.504997	-10.879651	178.693573
RHand	0.000000	247.676224	0.000000	8.087741	0.221451	14.771751	171.097885
LPelvis	0.000000	0.000000	0.000000	25.628080	-1.004481	-103.107483	127.213554
RPelvis	0.000000	0.000000	0.000000	7.212610	1.026056	95.806335	154.731140
LThigh	0.000000	127.213554	0.000000	-8.629928	-24.934669	-78.343170	392.414856
RThigh	0.000000	154.731140	0.000000	-0.087953	7.045837	82.361420	403.151337
LLowLeg	0.000000	392.414856	0.000000	-11.135172	-0.396179	6.207254	411.539612
RLowLeg	0.000000	403.151337	0.000000	-15.879393	-0.038285	-2.567663	396.965240
LFoot	0.000000	411.539612	0.000000	86.993790	-9.419292	-7.421347	182.020935
RFoot	0.000000	396.965240	0.000000	85.685738	19.489246	8.810133	181.714371
Neck	0.000000	303.935425	0.000000	26.917892	0.010495	-0.245093	141.112030
Head	0.000000	141.112030	0.000000	-34.290924	-1.751020	-3.852423	164.098740
#Beginning of Data. Separated by tabs.
[LowerTorso]
#Fr	Tx	Ty	Tz	Rx	Ry	Rz	SF
313	1371.410156	801.674255	993.809021	-168.912521	37.563282	-165.066025	1.000000
314	1392.097412	792.683655	958.354065	-169.851761	38.378338	-164.705093	1.000000
315	1410.975586	781.726135	923.735535	-170.758560	38.654816	-164.759003	1.000000
316	1427.816406	769.806641	890.681396	-171.605392	38.176544	-165.268204	1.000000
[UpperTorso]
#Fr	Tx	Ty	Tz	Rx	Ry	Rz	SF
313	0.000000	0.000000	0.000000	16.153740	34.847340	5.982469	1.000000
314	0.000000	0.000000	0.000000	16.170071	34.796028	5.313333	1.000000
315	0.000000	0.000000	0.000000	16.140890	34.016869	4.318805	1.000000
316	0.000000	0.000000	0.000000	16.184288	32.486092	3.080901	1.000000
[LCollarBone]
#Fr	Tx	Ty	Tz	Rx	Ry	Rz	SF
313	0.000000	0.000000	0.000000	-4.685733	-1.640106	-9.558344	1.000000
314	0.000000	0.000000	0.000000	-4.427561	-1.568515	-10.366921	1.000000
315	0.000000	0.000000	0.000000	-3.918046	-1.374458	-11.212417	1.000000
316	0.000000	0.000000	0.000000	-3.266263	-1.099302	-12.290363	1.000000
[RCollarBone]
#Fr	Tx	Ty	Tz	Rx	Ry	Rz	SF
313	0.000000	0.000000	0.000000	3.220577	-0.384856	-2.432522	1.000000
314	0.000000	0.000000	0.000000	3.884537	-0.444656	-2.506594	1.000000
315	0.000000	0.000000	0.000000	4.690457	-0.519491	-2.496634	1.000000
316	0.000000	0.000000	0.000000	5.538813	-0.599152	-2.457618	1.000000
[LUpArm]
#Fr	Tx	Ty	Tz	Rx	Ry	Rz	SF
313	0.000000	0.000000	0.000000	-28.785891	-4.307754	-18.105740	1.000000
314	0.000000	0.000000	0.000000	-30.126759	-1.971815	-23.782885	1.000000
315	0.000000	0.000000	0.000000	-31.131245	-0.213900	-29.291679	1.000000
316	0.000000	0.000000	0.000000	-31.365915	0.558339	-33.867729	1.000000
[RUpArm]
#Fr	Tx	Ty	Tz	Rx	Ry	Rz	SF
313	0.000000	0.000000	0.000000	5.425573	-14.439344	19.842478	1.000000
314	0.000000	0.000000	0.000000	8.683001	-17.084951	15.260733	1.000000
315	0.000000	0.000000	0.000000	11.924065	-18.633770	9.853424	1.000000
316	0.000000	0.000000	0.000000	14.955324	-18.865309	3.902943	1.000000
[LLowArm]
#Fr	Tx	Ty	Tz	Rx	Ry	Rz	SF
313	0.000000	0.000000	0.000000	-4.660742	0.706667	-0.127851	1.000000
314	0.000000	0.000000	0.000000	-4.448687	0.674763	-0.120789	1.000000
315	0.000000	0.000000	0.000000	-4.180613	0.634393	-0.112031	1.000000
316	0.000000	0.000000	0.000000	-3.677106	0.558456	-0.096093	1.000000
[RLowArm]
#Fr	Tx	Ty	Tz	Rx	Ry	Rz	SF
313	0.000000	0.000000	0.000000	8.030695	0.707618	0.038904	1.000000
314	0.000000	0.000000	0.000000	9.678613	0.851727	0.059123	1.000000
315	0.000000	0.000000	0.000000	11.991836	1.052890	0.094478	1.000000
316	0.000000	0.000000	0.000000	15.076263	1.318549	0.154192	1.000000
[LHand]
#Fr	Tx	Ty	Tz	Rx	Ry	Rz	SF
313	0.000000	0.000000	0.000000	-5.732536	-13.588196	-10.683082	1.000000
314	0.000000	0.000000	0.000000	-5.630045	-12.050739	-10.228438	1.000000
315	0.000000	0.000000	0.000000	-4.743273	-11.332735	-10.332487	1.000000
316	0.000000	0.000000	0.000000	-3.868684	-10.880590	-10.770138	1.000000
[RHand]
#Fr	Tx	Ty	Tz	Rx	Ry	Rz	SF
313	0.000000	0.000000	0.000000	13.497442	14.022933	0.688145	1.000000
314	0.000000	0.000000	0.000000	12.044575	12.711181	-0.110703	1.000000
315	0.000000	0.000000	0.000000	10.588924	11.299781	-0.962747	1.000000
316	0.000000	0.000000	0.000000	8.968447	9.658700	-1.958990	1.000000
[LPelvis]
#Fr	Tx	Ty	Tz	Rx	Ry	Rz	SF
313	0.000000	0.000000	0.000000	0.000000	0.000000	0.000000	1.000000
314	0.000000	0.000000	0.000000	0.000000	0.000000	0.000000	1.000000
315	0.000000	0.000000	0.000000	0.000000	0.000000	0.000000	1.000000
316	0.000000	0.000000	0.000000	0.000000	0.000000	0.000000	1.000000
[RPelvis]
#Fr	Tx	Ty	Tz	Rx	Ry	Rz	SF
313	0.000000	0.000000	0.000000	0.000000	0.000000	0.000000	1.000000
314	0.000000	0.000000	0.000000	0.000000	0.000000	0.000000	1.000000
315	0.000000	0.000000	0.000000	0.000000	0.000000	0.000000	1.000000
316	0.000000	0.000000	0.000000	0.000000	0.000000	0.000000	1.000000
[LThigh]
#Fr	Tx	Ty	Tz	Rx	Ry	Rz	SF
313	0.000000	0.000000	0.000000	40.106781	-5.905790	-9.264124	1.000000
314	0.000000	0.000000	0.000000	39.570736	-6.347435	-9.052518	1.000000
315	0.000000	0.000000	0.000000	39.717140	-6.603343	-9.717611	1.000000
316	0.000000	0.000000	0.000000	40.788155	-7.085557	-11.337290	1.000000
[RThigh]
#Fr	Tx	Ty	Tz	Rx	Ry	Rz	SF
313	0.000000	0.000000	0.000000	-17.177555	-2.527617	4.792215	1.000000
314	0.000000	0.000000	0.000000	-17.835735	-3.348596	3.420973	1.000000
315	0.000000	0.000000	0.000000	-17.502420	-3.259569	1.469431	1.000000
316	0.000000	0.000000	0.000000	-16.237843	-2.364059	-0.801697	1.000000
[LLowLeg]
#Fr	Tx	Ty	Tz	Rx	Ry	Rz	SF
313	0.000000	0.000000	0.000000	-12.499942	1.027693	0.154013	1.000000
314	0.000000	0.000000	0.000000	-19.061615	1.573823	0.144402	1.000000
315	0.000000	0.000000	0.000000	-24.907028	2.056476	0.083300	1.000000
316	0.000000	0.000000	0.000000	-30.677481	2.524202	-0.024936	1.000000
[RLowLeg]
#Fr	Tx	Ty	Tz	Rx	Ry	Rz	SF
313	0.000000	0.000000	0.000000	-18.137362	-1.021169	-0.106558	1.000000
314	0.000000	0.000000	0.000000	-20.261278	-1.141563	-0.097771	1.000000
315	0.000000	0.000000	0.000000	-23.748512	-1.338260	-0.073687	1.000000
316	0.000000	0.000000	0.000000	-28.143024	-1.583407	-0.026374	1.000000
[LFoot]
#Fr	Tx	Ty	Tz	Rx	Ry	Rz	SF
313	0.000000	0.000000	0.000000	6.794680	1.953400	7.892913	1.000000
314	0.000000	0.000000	0.000000	6.769046	2.678937	9.814862	1.000000
315	0.000000	0.000000	0.000000	7.687198	2.776392	11.036551	1.000000
316	0.000000	0.000000	0.000000	9.514847	2.139114	11.260246	1.000000
[RFoot]
#Fr	Tx	Ty	Tz	Rx	Ry	Rz	SF
313	0.000000	0.000000	0.000000	-53.103371	19.655178	7.016458	1.000000
314	0.000000	0.000000	0.000000	-54.598614	19.528805	6.335174	1.000000
315	0.000000	0.000000	0.000000	-51.805443	17.173691	7.478118	1.000000
316	0.000000	0.000000	0.000000	-45.687244	12.400316	9.046906	1.000000
[Neck]
#Fr	Tx	Ty	Tz	Rx	Ry	Rz	SF
313	0.000000	0.000000	0.000000	5.528475	-2.416061	-1.271989	1.000000
314	0.000000	0.000000	0.000000	5.215466	-1.801183	-1.046964	1.000000
315	0.000000	0.000000	0.000000	4.746528	-1.100868	-0.903831	1.000000
316	0.000000	0.000000	0.000000	4.083997	-0.315849	-0.836208	1.000000
[Head]
#Fr	Tx	Ty	Tz	Rx	Ry	Rz	SF
313	0.000000	0.000000	0.000000	11.397978	-1.308249	-4.836095	1.000000
314	0.000000	0.000000	0.000000	10.645004	-0.687883	-3.711852	1.000000
315	0.000000	0.000000	0.000000	9.575253	0.142235	-2.612096	1.000000
316	0.000000	0.000000	0.000000	8.121562	1.149066	-1.560617	1.000000
[EndOfFile]
